<?xml version="1.0" encoding="UTF-8" standalone="no"?>
<svg
   width="24"
   height="24"
   viewBox="0 0 24 24"
   fill="none"
   stroke="currentColor"
   stroke-width="2"
   stroke-linecap="round"
   stroke-linejoin="round"
   class="lucide lucide-box-icon lucide-box"
   version="1.1"
   id="svg1165"
   sodipodi:docname="box.svg.2025_05_26_13_31_34.0.svg"
   xmlns:inkscape="http://www.inkscape.org/namespaces/inkscape"
   xmlns:sodipodi="http://sodipodi.sourceforge.net/DTD/sodipodi-0.dtd"
   xmlns="http://www.w3.org/2000/svg"
   xmlns:svg="http://www.w3.org/2000/svg">
  <defs
     id="defs1169" />
  <sodipodi:namedview
     id="namedview1167"
     pagecolor="#ffffff"
     bordercolor="#000000"
     borderopacity="0.25"
     inkscape:showpageshadow="2"
     inkscape:pageopacity="0.0"
     inkscape:pagecheckerboard="0"
     inkscape:deskcolor="#d1d1d1"
     showgrid="false" />
  <path
     d="M 16.473517,9.844107 A 1.0481941,1.0481941 0 0 0 15.94942,8.9374184 L 12.280741,6.8410305 a 1.0481941,1.0481941 0 0 0 -1.048194,0 L 7.5638674,8.9374184 A 1.0481941,1.0481941 0 0 0 7.0397704,9.844107 v 4.192775 a 1.0481941,1.0481941 0 0 0 0.524097,0.906689 l 3.6686796,2.096388 a 1.0481941,1.0481941 0 0 0 1.048194,0 l 3.668679,-2.096388 a 1.0481941,1.0481941 0 0 0 0.524097,-0.906689 z"
     id="path1159"
     style="stroke-width:0.699264;stroke-dasharray:none" />
  <path
     d="M 7.1969995,9.32001 11.756644,11.940494 16.316288,9.32001"
     id="path1161"
     style="stroke-width:0.699264;stroke-dasharray:none" />
  <path
     d="M 11.756644,17.181465 V 11.940494"
     id="path1163"
     style="stroke-width:0.699264;stroke-dasharray:none" />
  <path
     d="M 21.184742,7.1327118 A 1.0481941,1.0481941 0 0 0 20.660645,6.2260232 L 16.991966,4.1296354 a 1.0481941,1.0481941 0 0 0 -1.048194,0 l -3.66868,2.0963878 a 1.0481941,1.0481941 0 0 0 -0.524097,0.9066886 v 4.1927742 a 1.0481941,1.0481941 0 0 0 0.524097,0.906689 l 3.66868,2.096388 a 1.0481941,1.0481941 0 0 0 1.048194,0 l 3.668679,-2.096388 a 1.0481941,1.0481941 0 0 0 0.524097,-0.906689 z"
     id="path1159-5"
     style="stroke-width:0.699264;stroke-dasharray:none" />
  <path
     d="m 11.908225,6.6086149 4.559644,2.6204845 4.559644,-2.6204845"
     id="path1161-3"
     style="stroke-width:0.699264;stroke-dasharray:none" />
  <path
     d="M 16.467869,14.470069 V 9.2290994"
     id="path1163-1"
     style="stroke-width:0.699264;stroke-dasharray:none" />
  <path
     d="M 11.815834,7.1871827 A 1.0481941,1.0481941 0 0 0 11.291737,6.2804941 L 7.6230579,4.1841063 a 1.0481941,1.0481941 0 0 0 -1.0481939,0 L 2.9061841,6.2804941 a 1.0481941,1.0481941 0 0 0 -0.524097,0.9066886 v 4.1927753 a 1.0481941,1.0481941 0 0 0 0.524097,0.906688 l 3.6686799,2.096387 a 1.0481941,1.0481941 0 0 0 1.0481939,0 l 3.6686791,-2.096387 a 1.0481941,1.0481941 0 0 0 0.524097,-0.906688 z"
     id="path1159-5-5"
     style="stroke-width:0.699264;stroke-dasharray:none" />
  <path
     d="M 2.5393166,6.6630858 7.0989609,9.2835703 11.658606,6.6630858"
     id="path1161-3-5"
     style="stroke-width:0.699264;stroke-dasharray:none" />
  <path
     d="M 7.0989609,14.524539 V 9.2835703"
     id="path1163-1-3"
     style="stroke-width:0.699264;stroke-dasharray:none" />
  <path
     d="M 12.00648,12.52528 A 1.0481941,1.0481941 0 0 0 11.482383,11.618592 L 7.8137044,9.5222047 a 1.0481941,1.0481941 0 0 0 -1.0481939,0 L 3.0968306,11.618592 A 1.0481941,1.0481941 0 0 0 2.5727337,12.52528 v 4.192775 a 1.0481941,1.0481941 0 0 0 0.5240969,0.906689 l 3.6686799,2.096387 a 1.0481941,1.0481941 0 0 0 1.0481939,0 l 3.6686786,-2.096387 a 1.0481941,1.0481941 0 0 0 0.524097,-0.906689 z"
     id="path1159-5-9"
     style="stroke-width:0.699264;stroke-dasharray:none" />
  <path
     d="m 2.7299631,12.001183 4.5596444,2.620485 4.5596445,-2.620485"
     id="path1161-3-0"
     style="stroke-width:0.699264;stroke-dasharray:none" />
  <path
     d="m 7.2896075,19.862638 v -5.24097"
     id="path1163-1-4"
     style="stroke-width:0.699264;stroke-dasharray:none" />
  <path
     d="M 21.103036,12.579752 A 1.0481941,1.0481941 0 0 0 20.578939,11.673063 L 16.91026,9.5766753 a 1.0481941,1.0481941 0 0 0 -1.048194,0 l -3.668679,2.0963877 a 1.0481941,1.0481941 0 0 0 -0.524097,0.906689 v 4.192773 a 1.0481941,1.0481941 0 0 0 0.524097,0.906689 l 3.668679,2.096388 a 1.0481941,1.0481941 0 0 0 1.048194,0 l 3.668679,-2.096388 a 1.0481941,1.0481941 0 0 0 0.524097,-0.906689 z"
     id="path1159-5-4"
     style="stroke-width:0.699264;stroke-dasharray:none" />
  <path
     d="m 11.826519,12.055655 4.559644,2.620484 4.559645,-2.620484"
     id="path1161-3-1"
     style="stroke-width:0.699264;stroke-dasharray:none" />
  <path
     d="M 16.386163,19.917108 V 14.676139"
     id="path1163-1-9"
     style="stroke-width:0.699264;stroke-dasharray:none" />
</svg>
