<?xml version="1.0" encoding="utf-8" standalone="no"?>
<!DOCTYPE svg PUBLIC "-//W3C//DTD SVG 1.1//EN"
  "http://www.w3.org/Graphics/SVG/1.1/DTD/svg11.dtd">
<svg xmlns:xlink="http://www.w3.org/1999/xlink" width="72pt" height="72pt" viewBox="0 0 72 72" xmlns="http://www.w3.org/2000/svg" version="1.1">
 <metadata>
  <rdf:RDF xmlns:dc="http://purl.org/dc/elements/1.1/" xmlns:cc="http://creativecommons.org/ns#" xmlns:rdf="http://www.w3.org/1999/02/22-rdf-syntax-ns#">
   <cc:Work>
    <dc:type rdf:resource="http://purl.org/dc/dcmitype/StillImage"/>
    <dc:date>2025-05-29T18:25:54.957474</dc:date>
    <dc:format>image/svg+xml</dc:format>
    <dc:creator>
     <cc:Agent>
      <dc:title>Matplotlib v3.10.3, https://matplotlib.org/</dc:title>
     </cc:Agent>
    </dc:creator>
   </cc:Work>
  </rdf:RDF>
 </metadata>
 <defs>
  <style type="text/css">*{stroke-linejoin: round; stroke-linecap: butt}</style>
 </defs>
 <g id="figure_1">
  <g id="axes_1">
   <g id="line2d_1">
    <path d="M 11.536364 36.948838 
L 12.837063 36.963628 
L 14.137762 37.356995 
L 15.438462 37.996254 
L 16.739161 38.136446 
L 18.03986 36.928787 
L 19.340559 34.710514 
L 20.641259 33.727176 
L 21.941958 36.522501 
L 23.242657 42.433449 
L 24.543357 46.027269 
L 25.844056 41.251034 
L 27.144755 29.095976 
L 28.445455 20.135257 
L 29.746154 25.85935 
L 31.046853 45.192996 
L 32.347552 61.56 
L 33.648252 57.493599 
L 34.948951 33.711932 
L 36.24965 11.16 
L 37.55035 11.16 
L 38.851049 33.711932 
L 40.151748 57.493599 
L 41.452448 61.56 
L 42.753147 45.192996 
L 44.053846 25.85935 
L 45.354545 20.135257 
L 46.655245 29.095976 
L 47.955944 41.251034 
L 49.256643 46.027269 
L 50.557343 42.433449 
L 51.858042 36.522501 
L 53.158741 33.727176 
L 54.459441 34.710514 
L 55.76014 36.928787 
L 57.060839 38.136446 
L 58.361538 37.996254 
L 59.662238 37.356995 
L 60.962937 36.963628 
L 62.263636 36.948838 
" clip-path="url(#p07164de637)" style="fill: none"; stroke-width: 3; stroke-linecap: square"/>
   </g>
  </g>
 </g>
 <defs>
  <clipPath id="p07164de637">
   <rect x="9" y="8.64" width="55.8" height="55.44"/>
  </clipPath>
 </defs>
</svg>
