<?xml version="1.0" encoding="UTF-8" standalone="no"?>
<svg
   width="24"
   height="24"
   viewBox="0 0 24 24"
   fill="none"
   stroke="currentColor"
   stroke-width="2"
   stroke-linecap="round"
   stroke-linejoin="round"
   class="lucide lucide-hexagon-icon lucide-hexagon"
   version="1.1"
   id="svg4"
   sodipodi:docname="hexagon.svg"
   xmlns:inkscape="http://www.inkscape.org/namespaces/inkscape"
   xmlns:sodipodi="http://sodipodi.sourceforge.net/DTD/sodipodi-0.dtd"
   xmlns="http://www.w3.org/2000/svg"
   xmlns:svg="http://www.w3.org/2000/svg">
  <defs
     id="defs8" />
  <sodipodi:namedview
     id="namedview6"
     pagecolor="#ffffff"
     bordercolor="#000000"
     borderopacity="0.25"
     inkscape:showpageshadow="2"
     inkscape:pageopacity="0.0"
     inkscape:pagecheckerboard="0"
     inkscape:deskcolor="#d1d1d1"
     showgrid="false" />
  <path
     d="M 12.009685,7.1819997 V 3.7770901 A 0.85122739,0.85122739 0 0 0 11.584072,3.0407784 L 8.6047763,1.3383236 a 0.85122739,0.85122739 0 0 0 -0.8512274,0 L 4.774253,3.0407784 A 0.85122739,0.85122739 0 0 0 4.3486393,3.7770901 v 3.4049096 a 0.85122739,0.85122739 0 0 0 0.4256137,0.736312 l 2.9792959,1.702455 a 0.85122739,0.85122739 0 0 0 0.8512274,0 l 2.9792957,-1.702455 a 0.85122739,0.85122739 0 0 0 0.425613,-0.736312 z"
     id="path2"
     style="stroke-width:0.425614;stroke-linejoin:miter;stroke-dasharray:none" />
  <path
     d="M 19.698099,7.1240709 V 3.7191613 A 0.85122739,0.85122739 0 0 0 19.272486,2.9828496 L 16.29319,1.2803948 a 0.85122739,0.85122739 0 0 0 -0.851228,0 l -2.979295,1.7024548 a 0.85122739,0.85122739 0 0 0 -0.425614,0.7363117 v 3.4049096 a 0.85122739,0.85122739 0 0 0 0.425614,0.736312 l 2.979295,1.7024551 a 0.85122739,0.85122739 0 0 0 0.851228,0 l 2.979296,-1.7024551 a 0.85122739,0.85122739 0 0 0 0.425613,-0.736312 z"
     id="path2-2"
     style="stroke-width:0.425614;stroke-linejoin:miter;stroke-dasharray:none" />
  <path
     d="M 23.600727,13.714139 V 10.30923 A 0.85122739,0.85122739 0 0 0 23.175114,9.5729177 L 20.195818,7.8704629 a 0.85122739,0.85122739 0 0 0 -0.851227,0 L 16.365295,9.5729177 A 0.85122739,0.85122739 0 0 0 15.939681,10.30923 v 3.404909 a 0.85122739,0.85122739 0 0 0 0.425614,0.736312 l 2.979296,1.702455 a 0.85122739,0.85122739 0 0 0 0.851227,0 l 2.979296,-1.702455 a 0.85122739,0.85122739 0 0 0 0.425613,-0.736312 z"
     id="path2-9"
     style="stroke-width:0.425614;stroke-linejoin:miter;stroke-dasharray:none" />
  <path
     d="m 8.2472709,13.784246 v -3.40491 A 0.85122739,0.85122739 0 0 0 7.8216579,9.6430249 L 4.8423618,7.9405699 a 0.85122739,0.85122739 0 0 0 -0.8512274,0 l -2.979296,1.702455 A 0.85122739,0.85122739 0 0 0 0.58622476,10.379336 v 3.40491 a 0.85122739,0.85122739 0 0 0 0.42561364,0.736312 l 2.979296,1.702455 a 0.85122739,0.85122739 0 0 0 0.8512274,0 l 2.9792961,-1.702455 a 0.85122739,0.85122739 0 0 0 0.425613,-0.736312 z"
     id="path2-32"
     style="stroke-width:0.425614;stroke-linejoin:miter;stroke-dasharray:none" />
  <path
     d="m 12.103162,20.350946 v -3.40491 A 0.85122739,0.85122739 0 0 0 11.677549,16.209725 L 8.6982527,14.50727 a 0.85122739,0.85122739 0 0 0 -0.8512274,0 l -2.9792959,1.702455 a 0.85122739,0.85122739 0 0 0 -0.4256137,0.736311 v 3.40491 a 0.85122739,0.85122739 0 0 0 0.4256137,0.736312 l 2.9792959,1.702455 a 0.85122739,0.85122739 0 0 0 0.8512274,0 l 2.9792963,-1.702455 a 0.85122739,0.85122739 0 0 0 0.425613,-0.736312 z"
     id="path2-0"
     style="stroke-width:0.425614;stroke-linejoin:miter;stroke-dasharray:none" />
  <path
     d="m 19.791574,20.374315 v -3.40491 a 0.85122739,0.85122739 0 0 0 -0.425613,-0.736311 l -2.979296,-1.702455 a 0.85122739,0.85122739 0 0 0 -0.851227,0 l -2.979296,1.702455 a 0.85122739,0.85122739 0 0 0 -0.425614,0.736311 v 3.40491 a 0.85122739,0.85122739 0 0 0 0.425614,0.736312 l 2.979296,1.702455 a 0.85122739,0.85122739 0 0 0 0.851227,0 l 2.979296,-1.702455 a 0.85122739,0.85122739 0 0 0 0.425613,-0.736312 z"
     id="path2-27"
     style="stroke-width:0.425614;stroke-linejoin:miter;stroke-dasharray:none" />
  <path
     d="m 15.912314,13.737508 v -3.40491 A 0.85122739,0.85122739 0 0 0 15.486701,9.5962869 L 12.507405,7.8938321 a 0.85122739,0.85122739 0 0 0 -0.851227,0 L 8.6768823,9.5962869 A 0.85122739,0.85122739 0 0 0 8.2512686,10.332598 v 3.40491 a 0.85122739,0.85122739 0 0 0 0.4256137,0.736312 l 2.9792957,1.702455 a 0.85122739,0.85122739 0 0 0 0.851227,0 l 2.979296,-1.702455 a 0.85122739,0.85122739 0 0 0 0.425613,-0.736312 z"
     id="path2-3"
     style="stroke-width:0.425614;stroke-linejoin:miter;stroke-dasharray:none" />
</svg>
