<?xml version="1.0" encoding="UTF-8" standalone="no"?>
<svg
   width="24"
   height="24"
   viewBox="0 0 24 24"
   fill="none"
   stroke="currentColor"
   stroke-width="2"
   stroke-linecap="round"
   stroke-linejoin="round"
   class="lucide lucide-hexagon-icon lucide-hexagon"
   version="1.1"
   id="svg4"
   sodipodi:docname="hexagon.svg"
   inkscape:export-filename="hexagon_tiling.svg"
   inkscape:export-xdpi="96"
   inkscape:export-ydpi="96"
   xmlns:inkscape="http://www.inkscape.org/namespaces/inkscape"
   xmlns:sodipodi="http://sodipodi.sourceforge.net/DTD/sodipodi-0.dtd"
   xmlns="http://www.w3.org/2000/svg"
   xmlns:svg="http://www.w3.org/2000/svg">
  <defs
     id="defs8" />
  <sodipodi:namedview
     id="namedview6"
     pagecolor="#ffffff"
     bordercolor="#000000"
     borderopacity="0.25"
     inkscape:showpageshadow="2"
     inkscape:pageopacity="0.0"
     inkscape:pagecheckerboard="0"
     inkscape:deskcolor="#d1d1d1"
     showgrid="false" />
  <path
     d="M 11.942398,7.4881668 V 4.1978208 A 0.8225865,0.8225865 0 0 0 11.531105,3.4862834 L 8.652052,1.8411104 a 0.8225865,0.8225865 0 0 0 -0.8225865,0 L 4.9504127,3.4862834 A 0.8225865,0.8225865 0 0 0 4.5391194,4.1978208 v 3.290346 a 0.8225865,0.8225865 0 0 0 0.4112933,0.7115376 l 2.8790528,1.6451732 a 0.8225865,0.8225865 0 0 0 0.8225865,0 l 2.879053,-1.6451732 a 0.8225865,0.8225865 0 0 0 0.411293,-0.7115376 z"
     id="path2"
     style="stroke-width:0.579812;stroke-linejoin:miter;stroke-dasharray:none" />
  <path
     d="M 19.372123,7.4321871 V 4.1418411 A 0.8225865,0.8225865 0 0 0 18.96083,3.4303037 l -2.879053,-1.645173 a 0.8225865,0.8225865 0 0 0 -0.822587,0 l -2.879052,1.645173 a 0.8225865,0.8225865 0 0 0 -0.411293,0.7115374 v 3.290346 a 0.8225865,0.8225865 0 0 0 0.411293,0.7115376 l 2.879052,1.6451729 a 0.8225865,0.8225865 0 0 0 0.822587,0 L 18.96083,8.1437247 a 0.8225865,0.8225865 0 0 0 0.411293,-0.7115376 z"
     id="path2-2"
     style="stroke-width:0.579812;stroke-linejoin:miter;stroke-dasharray:none" />
  <path
     d="M 23.143441,13.800522 V 10.510177 A 0.8225865,0.8225865 0 0 0 22.732148,9.7986386 l -2.879053,-1.645173 a 0.8225865,0.8225865 0 0 0 -0.822586,0 l -2.879053,1.645173 a 0.8225865,0.8225865 0 0 0 -0.411293,0.7115384 v 3.290345 a 0.8225865,0.8225865 0 0 0 0.411293,0.711538 l 2.879053,1.645173 a 0.8225865,0.8225865 0 0 0 0.822586,0 l 2.879053,-1.645173 a 0.8225865,0.8225865 0 0 0 0.411293,-0.711538 z"
     id="path2-9"
     style="stroke-width:0.579812;stroke-linejoin:miter;stroke-dasharray:none" />
  <path
     d="M 8.3065754,13.86827 V 10.577924 A 0.8225865,0.8225865 0 0 0 7.8952829,9.8663866 L 5.0162299,8.2212137 a 0.8225865,0.8225865 0 0 0 -0.8225865,0 L 1.3145905,9.8663866 A 0.8225865,0.8225865 0 0 0 0.90329729,10.577924 v 3.290346 a 0.8225865,0.8225865 0 0 0 0.41129321,0.711538 l 2.8790529,1.645173 a 0.8225865,0.8225865 0 0 0 0.8225865,0 l 2.879053,-1.645173 A 0.8225865,0.8225865 0 0 0 8.3065754,13.86827 Z"
     id="path2-32"
     style="stroke-width:0.579812;stroke-linejoin:miter;stroke-dasharray:none" />
  <path
     d="M 12.032729,20.214024 V 16.923677 A 0.8225865,0.8225865 0 0 0 11.621437,16.21214 L 8.7423832,14.566967 a 0.8225865,0.8225865 0 0 0 -0.8225865,0 L 5.0407439,16.21214 a 0.8225865,0.8225865 0 0 0 -0.4112932,0.711537 v 3.290347 a 0.8225865,0.8225865 0 0 0 0.4112932,0.711537 l 2.8790528,1.645173 a 0.8225865,0.8225865 0 0 0 0.8225865,0 l 2.8790538,-1.645173 a 0.8225865,0.8225865 0 0 0 0.411292,-0.711537 z"
     id="path2-0"
     style="stroke-width:0.579812;stroke-linejoin:miter;stroke-dasharray:none" />
  <path
     d="M 19.462453,20.236606 V 16.94626 A 0.8225865,0.8225865 0 0 0 19.05116,16.234723 L 16.172107,14.58955 a 0.8225865,0.8225865 0 0 0 -0.822586,0 l -2.879053,1.645173 a 0.8225865,0.8225865 0 0 0 -0.411293,0.711537 v 3.290346 a 0.8225865,0.8225865 0 0 0 0.411293,0.711538 l 2.879053,1.645173 a 0.8225865,0.8225865 0 0 0 0.822586,0 l 2.879053,-1.645173 a 0.8225865,0.8225865 0 0 0 0.411293,-0.711538 z"
     id="path2-27"
     style="stroke-width:0.579812;stroke-linejoin:miter;stroke-dasharray:none" />
  <path
     d="M 15.713717,13.823105 V 10.532759 A 0.8225865,0.8225865 0 0 0 15.302424,9.8212216 L 12.423371,8.1760485 a 0.8225865,0.8225865 0 0 0 -0.822586,0 L 8.7217319,9.8212216 A 0.8225865,0.8225865 0 0 0 8.3104386,10.532759 v 3.290346 a 0.8225865,0.8225865 0 0 0 0.4112933,0.711538 l 2.8790531,1.645173 a 0.8225865,0.8225865 0 0 0 0.822586,0 l 2.879053,-1.645173 a 0.8225865,0.8225865 0 0 0 0.411293,-0.711538 z"
     id="path2-3"
     style="stroke-width:0.579812;stroke-linejoin:miter;stroke-dasharray:none" />
</svg>
