<?xml version="1.0" encoding="UTF-8" standalone="no"?>
<svg
   version="1.1"
   id="Ebene_1"
   x="0px"
   y="0px"
   viewBox="0 0 24 24.000001"
   xml:space="preserve"
   xmlns="http://www.w3.org/2000/svg">
<g stroke="currentColor" fill="currentColor" stroke-width="1">
	<path
   d="M 17.361907,3.7977631 13.089639,8.818001 c 0.203574,0.1192882 0.391947,0.2611445 0.557753,0.4264899 l 4.218382,-4.9562184 c 0.287857,0.1717936 0.622693,0.2436429 0.958911,0.200349 C 19.650031,4.3859136 20.238182,3.6337993 20.135934,2.8125989 20.086651,2.414204 19.884002,2.0595634 19.565746,1.8136176 19.247951,1.5672115 18.854162,1.4589771 18.453464,1.50964 c -0.399315,0.049742 -0.7558,0.2510119 -1.003586,0.5674251 -0.247788,0.3168737 -0.356944,0.7102024 -0.307663,1.1085975 0.02626,0.21739 0.10225,0.4264899 0.219692,0.6121005 z" />
	<path
   d="m 10.440427,5.3227179 0.572491,3.2032803 c 0.218312,-0.055269 0.445835,-0.087969 0.681187,-0.087969 0.0051,0 0.01013,9.212e-4 0.0152,9.212e-4 L 11.131746,5.2089566 C 12.06026,4.8902406 12.655319,3.9580423 12.533267,2.9756416 12.39049,1.8320405 11.337621,1.0149854 10.190797,1.1609868 9.0416687,1.3046854 8.2227711,2.3515661 8.365088,3.4951671 8.4963511,4.5443508 9.3926247,5.3208757 10.440427,5.3227179 Z" />
	<path
   d="m 9.3562395,19.064353 1.7842575,-5.143671 c -0.233511,-0.04744 -0.454585,-0.126658 -0.662764,-0.228905 l -1.7865598,5.15012 c -0.1957432,-0.03039 -0.3919471,-0.03454 -0.5853874,-0.01018 -1.1491279,0.143238 -1.9680254,1.190119 -1.8257086,2.33372 0.1317237,1.055632 1.0376694,1.829853 2.080405,1.829853 0.086587,0 0.174557,-0.0055 0.2625262,-0.01658 C 9.7716757,22.835467 10.590573,21.789047 10.448257,20.645446 10.363512,19.96472 9.9595892,19.3844 9.3562395,19.064301 Z" />
	<path
   d="m 20.202257,14.6599 c -0.06908,-0.554529 -0.350496,-1.048263 -0.793567,-1.391389 -0.442149,-0.341745 -0.99069,-0.492352 -1.548904,-0.423266 -0.528276,0.06632 -1.013719,0.332994 -1.353622,0.740139 l -2.257725,-1.308947 c -0.09119,0.217852 -0.211863,0.420043 -0.353259,0.605654 l 2.257265,1.308947 c -0.118828,0.315952 -0.159819,0.654472 -0.118367,0.987927 0.142777,1.14268 1.1915,1.957893 2.34247,1.814194 0.556372,-0.06908 1.052869,-0.350035 1.397377,-0.790803 0.345429,-0.440767 0.497418,-0.988848 0.428332,-1.542456 z" />
	<path
   d="m 8.9334341,11.377401 c -0.00323,-0.05666 -0.00875,-0.11284 -0.00875,-0.170412 0,-0.181465 0.018422,-0.357865 0.052044,-0.529658 L 6.3597562,10.493563 C 6.256588,9.6728232 5.5007889,9.0860542 4.6777463,9.1919858 4.27843,9.2417276 3.9219472,9.4434582 3.6741592,9.7598714 3.4263713,10.076745 3.3172157,10.470074 3.3664969,10.868008 c 0.1017862,0.821201 0.8566645,1.407048 1.6824706,1.30342 0.5701885,-0.07092 1.0399722,-0.449979 1.2315703,-0.980559 z" />
	<path
   d="m 14.463066,11.206991 a 2.7689607,2.7689607 0 0 1 -2.768961,2.76896 2.7689607,2.7689607 0 0 1 -2.7689607,-2.76896 2.7689607,2.7689607 0 0 1 2.7689607,-2.7689617 2.7689607,2.7689607 0 0 1 2.768961,2.7689617 z" />
</g>
</svg>
