<?xml version="1.0" encoding="utf-8" standalone="no"?>
<!DOCTYPE svg PUBLIC "-//W3C//DTD SVG 1.1//EN"
  "http://www.w3.org/Graphics/SVG/1.1/DTD/svg11.dtd">
<svg xmlns:xlink="http://www.w3.org/1999/xlink" width="72pt" height="72pt" viewBox="0 0 72 72" xmlns="http://www.w3.org/2000/svg" version="1.1">
 <metadata>
  <rdf:RDF xmlns:dc="http://purl.org/dc/elements/1.1/" xmlns:cc="http://creativecommons.org/ns#" xmlns:rdf="http://www.w3.org/1999/02/22-rdf-syntax-ns#">
   <cc:Work>
    <dc:type rdf:resource="http://purl.org/dc/dcmitype/StillImage"/>
    <dc:date>2025-05-29T18:26:33.647591</dc:date>
    <dc:format>image/svg+xml</dc:format>
    <dc:creator>
     <cc:Agent>
      <dc:title>Matplotlib v3.10.3, https://matplotlib.org/</dc:title>
     </cc:Agent>
    </dc:creator>
   </cc:Work>
  </rdf:RDF>
 </metadata>
 <defs>
  <style type="text/css">*{stroke-linejoin: round; stroke-linecap: butt}</style>
 </defs>
 <g id="figure_1">
  <g id="axes_1">
   <g id="line2d_1">
    <path d="M 11.066667 1.215 
L 16.807407 25.659444 
L 22.548148 43.992778 
L 28.288889 56.215 
L 34.02963 62.326111 
L 39.77037 62.326111 
L 45.511111 56.215 
L 51.251852 43.992778 
L 56.992593 25.659444 
L 62.733333 1.215 
" clip-path="url(#p062ad6524d)" style="fill: none"; stroke-width: 2; stroke-linecap: square"/>
   </g>
   <g id="line2d_2">
    <path d="M 29.59323 58.14 
L 31.216957 57.312438 
L 32.840683 55.898345 
L 34.46441 54.286398 
L 36.088137 53.19 
L 37.711863 53.19 
L 39.33559 54.286398 
L 40.959317 55.898345 
L 42.583043 57.312438 
L 44.20677 58.14 
" clip-path="url(#p062ad6524d)" style="fill: none"; stroke-width: 2; stroke-linecap: square"/>
   </g>
   <g id="line2d_3">
    <path d="M 20.561565 38.34 
L 24.192329 36.32807 
L 27.823092 36.904049 
L 31.453855 40.471586 
L 35.084618 44.0325 
L 38.715382 44.0325 
L 42.346145 40.471586 
L 45.976908 36.904049 
L 49.607671 36.32807 
L 53.238435 38.34 
" clip-path="url(#p062ad6524d)" style="fill: none"; stroke-width: 2; stroke-linecap: square"/>
   </g>
   <g id="line2d_4">
    <path d="M 14.97969 18.54 
L 19.85087 20.986677 
L 24.72205 22.758209 
L 29.59323 18.519535 
L 34.46441 12.105 
L 39.33559 12.105 
L 44.20677 18.519535 
L 49.07795 22.758209 
L 53.94913 20.986677 
L 58.82031 18.54 
" clip-path="url(#p062ad6524d)" style="fill: none"; stroke-width: 2; stroke-linecap: square"/>
   </g>
  </g>
 </g>
 <defs>
  <clipPath id="p062ad6524d">
   <rect x="9" y="8.64" width="55.8" height="55.44"/>
  </clipPath>
 </defs>
</svg>
