<?xml version="1.0" encoding="UTF-8" standalone="no"?>
<svg
   width="24"
   height="24"
   viewBox="0 0 24 24"
   fill="none"
   stroke="currentColor"
   stroke-width="2"
   stroke-linecap="round"
   stroke-linejoin="round"
   class="lucide lucide-grid3x3-icon lucide-grid-3x3"
   version="1.1"
   id="svg12"
   sodipodi:docname="grid-3x3.svg"
   xmlns:inkscape="http://www.inkscape.org/namespaces/inkscape"
   xmlns:sodipodi="http://sodipodi.sourceforge.net/DTD/sodipodi-0.dtd"
   xmlns="http://www.w3.org/2000/svg"
   xmlns:svg="http://www.w3.org/2000/svg">
  <defs
     id="defs16" />
  <sodipodi:namedview
     id="namedview14"
     pagecolor="#ffffff"
     bordercolor="#000000"
     borderopacity="0.25"
     inkscape:showpageshadow="2"
     inkscape:pageopacity="0.0"
     inkscape:pagecheckerboard="0"
     inkscape:deskcolor="#d1d1d1"
     showgrid="false" />
  <path
     id="rect2"
     d="M 5,3 C 3.8920011,3 3,3.8920011 3,5 v 14 c 0,1.107999 0.8920011,2 2,2 h 14 c 1.107999,0 2,-0.892001 2,-2 V 8.8242188 A 4.218111,4.218111 0 0 1 18.730469,9.4882812 4.218111,4.218111 0 0 1 14.511719,5.2695312 4.218111,4.218111 0 0 1 15.175781,3 Z" />
  <path
     d="M 3,9 H 21"
     id="path4" />
  <path
     d="M 3,15 H 21"
     id="path6" />
  <path
     d="M 9,3 V 21"
     id="path8" />
  <path
     d="M 15,3 V 21"
     id="path10" />
  <path
     id="path297"
     d="m 22.960078,5.2814021 a 4.218111,4.218111 0 0 1 -4.218111,4.218111 4.218111,4.218111 0 0 1 -4.218111,-4.218111 4.218111,4.218111 0 0 1 4.218111,-4.218111 4.218111,4.218111 0 0 1 4.218111,4.218111 z" />
</svg>
